<?xml version="1.0" standalone="no"?>
<!DOCTYPE svg PUBLIC "-//W3C//DTD SVG 1.1//EN" "http://www.w3.org/Graphics/SVG/1.1/DTD/svg11.dtd" >
<svg xmlns="http://www.w3.org/2000/svg">
<metadata>
Created by FontForge 20120731 at Wed Apr 12 10:48:38 2017
 By admin
</metadata>
<defs>
<font id="iconfont" horiz-adv-x="1024" >
  <font-face 
    font-family="iconfont"
    font-weight="500"
    font-stretch="normal"
    units-per-em="1024"
    panose-1="2 0 6 3 0 0 0 0 0 0"
    ascent="896"
    descent="-128"
    x-height="792"
    bbox="44 -77 973 837"
    underline-thickness="0"
    underline-position="0"
    unicode-range="U+0078-E892"
  />
<missing-glyph 
 />
    <glyph glyph-name=".notdef" 
 />
    <glyph glyph-name=".notdef" 
 />
    <glyph glyph-name=".null" horiz-adv-x="0" 
 />
    <glyph glyph-name="nonmarkingreturn" horiz-adv-x="341" 
 />
    <glyph glyph-name="x" unicode="x" horiz-adv-x="1001" 
d="M281 543q-27 -1 -53 -1h-83q-18 0 -36.5 -6t-32.5 -18.5t-23 -32t-9 -45.5v-76h912v41q0 16 -0.5 30t-0.5 18q0 13 -5 29t-17 29.5t-31.5 22.5t-49.5 9h-133v-97h-438v97zM955 310v-52q0 -23 0.5 -52t0.5 -58t-10.5 -47.5t-26 -30t-33 -16t-31.5 -4.5q-14 -1 -29.5 -0.5
t-29.5 0.5h-32l-45 128h-439l-44 -128h-29h-34q-20 0 -45 1q-25 0 -41 9.5t-25.5 23t-13.5 29.5t-4 30v167h911zM163 247q-12 0 -21 -8.5t-9 -21.5t9 -21.5t21 -8.5q13 0 22 8.5t9 21.5t-9 21.5t-22 8.5zM316 123q-8 -26 -14 -48q-5 -19 -10.5 -37t-7.5 -25t-3 -15t1 -14.5
t9.5 -10.5t21.5 -4h37h67h81h80h64h36q23 0 34 12t2 38q-5 13 -9.5 30.5t-9.5 34.5q-5 19 -11 39h-368zM336 498v228q0 11 2.5 23t10 21.5t20.5 15.5t34 6h188q31 0 51.5 -14.5t20.5 -52.5v-227h-327z" />
    <glyph glyph-name="qianbi" unicode="&#xe892;" 
d="M317 33l-159 157l-100 -267zM828 534l-164 169l-476 -469l170 -177zM963 663q10 11 10 29.5t-5 31.5l-5 12q-43 48 -93 85q-23 16 -45 16t-33 -8l-11 -8l-84 -85l171 -171q73 73 95 98z" />
    <glyph glyph-name="jiaoyichaxun" unicode="&#xe605;" 
d="M458 424zM102 423.5q0 -96.5 47.5 -179t129.5 -130t179 -47.5t179 47.5t130 130t48 179t-48 179t-130 130t-179 47.5t-179 -47.5t-129.5 -130t-47.5 -179zM821 115q10 -11 10 -26t-11 -25q-10 -11 -25 -11t-26 10l-68 68q-108 -90 -250 -87.5t-247 97.5v0q-9 8 -9 19
t7 18t18 7q12 0 19 -9q94 -83 219 -83q90 0 166 44t120.5 120t44.5 166t-44.5 166t-120.5 120.5t-166 44.5t-166 -44.5t-120.5 -120.5t-44.5 -166q0 -54 18 -105v0q1 -4 1 -7q0 -10 -7.5 -17t-17.5 -7q-19 0 -24 18q-33 97 -9 203t100 183q73 73 171 99.5t196 1t171 -98.5
q69 -68 96 -159.5t9 -184t-79 -166.5zM382 498h-118q-10 0 -17 -7t-7 -16.5t7 -16.5t17 -7h389h4v0l0.5 0.5l0.5 0.5q9 1 15 8t5 17t-8 16l-73 59q-7 6 -17 5.5t-16 -8t-5 -17.5t8 -16l23 -18l-17 14l17 -14h-208zM537 350h118q10 0 16.5 7t6.5 16.5t-6.5 16.5t-16.5 7h-389
h-5v0v0h-1q-9 -1 -15 -9q-6 -7 -5 -16.5t9 -15.5l72 -60q8 -6 17.5 -5t15.5 8.5t5.5 17t-8.5 15.5l-22 18l17 -14l-17 14h208v0v0z" />
    <glyph glyph-name="qiyexinxichaxun" unicode="&#xe606;" 
d="M468 430zM110 430q0 -97 48 -179.5t130 -130.5t179.5 -48t179.5 48t130 130.5t48 179.5t-48 179.5t-130 130t-179.5 47.5t-179.5 -47.5t-130 -130t-48 -179.5zM760 188q61 74 79.5 167.5t-9 185t-96.5 159.5q-73 73 -171.5 98.5t-196.5 -0.5t-171 -100q-77 -77 -101 -183
t10 -204q5 -19 24 -19q10 0 17 7.5t7 17.5q0 3 -1 7h1q-18 51 -18 106q0 90 44.5 166.5t121 120.5t166.5 44t166.5 -44t120.5 -120.5t44 -166.5t-44 -166.5t-120.5 -121t-166.5 -44.5q-126 0 -220 83q-8 10 -20 10q-10 0 -17 -7.5t-7 -17.5q0 -12 9 -19v-1
q105 -94 247.5 -97t250.5 88l69 -68q10 -11 25 -11t26 11q11 10 11 25.5t-11 25.5zM716 411q7 7 7 16.5t-7 16.5l-243 242v0h-1l-256 -228q-7 -7 -7.5 -16.5t6 -17t16 -8t17.5 6.5l223 199l212 -211q7 -7 16.5 -7t16.5 7zM322.5 408q-9.5 0 -16.5 -6.5t-7 -16.5v-178h344
v115q0 9 -7 16t-16.5 7t-16.5 -7t-7 -16v-68h-102v103h105q9 0 16 6.5t7 16.5t-7 16.5t-16 6.5h-105v70q0 9 -6.5 16t-16.5 7t-16.5 -6.5t-6.5 -16.5v-219h-102v131q0 10 -7 16.5t-16.5 6.5z" />
    <glyph glyph-name="qianyueyewu" unicode="&#xe607;" 
d="M150 602v-396q0 -5 1.5 -15t15.5 -34t37 -40h601q3 1 7 2.5t15 8t19.5 13.5t16 19t8.5 25v417l-2.5 5t-8 10.5t-15.5 13.5t-25.5 10.5t-37.5 5.5l-124 6l-5 95l-8 8t-21.5 12.5t-35 5.5t-66.5 -2t-87 1l-38 1q-5 -1 -11 -3.5t-16.5 -14t-11.5 -28.5l-3 -84l-129 3v0
q-56 -8 -76 -45zM788 673h-99v36q0 36 -26 62t-62 26h-179q-37 0 -62.5 -26t-25.5 -62v-36h-100q-46 0 -78.5 -33t-32.5 -79v-355q0 -46 32.5 -78.5t78.5 -32.5h86q10 0 17 6.5t7 16.5t-7 17t-17 7v0h-86q-26 0 -45 19t-19 45v355q0 27 19 46t45 19h554q27 0 46 -19t19 -46
v-354q0 -27 -19 -46t-46 -19h-275v0v0h-1q-10 0 -17 -7t-7 -17t7 -16.5t17 -6.5h0.5h0.5h275q46 0 79 32.5t33 79.5v354q0 46 -33 79t-79 33zM641 673h-260v36q0 17 12 28.5t29 11.5h179q17 0 28.5 -11.5t11.5 -28.5v-36zM720 454h-472l-42 24l42 26h472v-50zM755 479
q0 12 8.5 20t20.5 8t20.5 -8t8.5 -20t-8.5 -20.5t-20.5 -8.5t-20.5 8.5t-8.5 20.5z" />
    <glyph glyph-name="shezhi" unicode="&#xe608;" 
d="M511 390zM173 389.5q0 -91.5 45.5 -169.5t123 -123t169 -45t169.5 45t123 123t45 169.5t-45 169.5t-123 123t-169.5 45t-169 -45t-123 -123t-45.5 -169.5zM915 453h-47q-14 75 -57 138l33 33q8 8 8 19t-8 19l-57 57q-8 8 -19 8t-19 -8l-33 -33q-63 43 -138 57v47
q0 11 -8 19t-19 8h-81q-11 0 -19 -8t-8 -19v-47q-75 -14 -138 -57l-32 33q-8 8 -19.5 8t-19.5 -8l-57 -57q-8 -8 -8 -19t8 -19l33 -33q-43 -63 -57 -138h-47q-11 0 -19 -8t-8 -19v-81q0 -11 8 -19t19 -8h47q14 -75 57 -138l-33 -33q-8 -7 -8 -18.5t8 -19.5l57 -57
q8 -8 19.5 -8t19.5 8l33 33q63 -43 137 -57v-47q0 -11 8 -19t19 -8h81q11 0 19 8t8 19v47q75 14 138 57l33 -33q8 -8 19 -8t19 8l58 57q7 8 7 19.5t-7 18.5l-33 33q43 64 57 138h46q12 0 19.5 8t7.5 19v81q0 11 -8 19t-19 8zM511 72q-130 0 -222 92t-92 222t92 221.5
t222 91.5t222 -91.5t92 -221.5t-92 -222t-222 -92zM688 330q-1 -8 -7.5 -13.5t-15.5 -5.5t-16 7t-7 17q0 3 1 6v1q7 21 7 44q0 58 -40.5 99t-98.5 41t-99 -41t-41 -99t41 -99t99 -41q24 0 47 9v0q5 2 10 2q10 0 17 -7t7 -16q0 -19 -18 -23q-31 -11 -63 -11
q-77 0 -131.5 54.5t-54.5 131.5t54.5 131.5t131.5 54.5t131.5 -54.5t54.5 -131.5q0 -28 -9 -56z" />
    <glyph glyph-name="xiaoxi" unicode="&#xe609;" 
d="M851 138h-680q-7 0 -12 5t-5 12v468q0 7 5 12t12 5h681q7 0 12 -5t5 -12v-467q0 -7 -5 -12.5t-13 -5.5zM362 -24.5q-7 7.5 -7 18t8 18.5l143 138q10 10 24 10h253q26 0 44.5 18.5t18.5 44.5v335q0 25 -18.5 43.5t-44.5 18.5h-548q-24 0 -41.5 -17.5t-17.5 -41.5v-338
q0 -26 18.5 -44.5t44.5 -18.5h91q11 0 18.5 -7.5t7.5 -18t-7.5 -18t-18.5 -7.5h-91q-47 0 -80.5 33t-33.5 81v335q0 47 33.5 80t80.5 33h545q47 0 80 -33t33 -80v-336q0 -47 -33 -80t-80 -33h-234q-14 0 -24 -10l-128 -125q-7 -7 -18 -6.5t-18 8zM395 406q0 16 -11.5 28
t-28.5 12t-29 -12t-12 -28q0 -4 1 -7q-1 -4 -1 -7q0 -17 12 -29t29 -12t28.5 12t11.5 29v7v7zM553 406q0 16 -11.5 28t-28.5 12t-29 -12t-12 -28q0 -4 1 -7q-1 -4 -1 -7q0 -17 12 -29t29 -12t28.5 12t11.5 29v7v7zM709 406q0 16 -12 28t-28.5 12t-28.5 -12t-12 -28v-7v-7
q0 -17 12 -29t28.5 -12t28.5 12t12 29q0 3 -1 7q1 4 1 7z" />
    <glyph glyph-name="yinhangkehuhaochaxun" unicode="&#xe60c;" 
d="M466 422zM113 422q0 -96 47.5 -177.5t128.5 -128.5t177 -47t177.5 47t129 128.5t47.5 177.5t-47.5 177t-129 128.5t-177.5 47.5t-177 -47.5t-128.5 -128.5t-47.5 -177zM824 119q10 -10 10 -24.5t-10 -25.5q-10 -10 -25 -10t-25 10l-66 66q-105 -87 -242.5 -84.5
t-240.5 94.5h1q-9 7 -9 19q0 9 7 16.5t17 7.5q11 0 18 -10q91 -80 213 -80q87 0 161 43t117 116.5t43 161t-43 161.5t-117 117t-161 43t-161 -43t-117 -117t-43 -161q0 -53 17 -103v0q1 -4 1 -6q0 -10 -7 -17t-17 -7q-18 0 -23 18q-32 94 -9 197t98 178q70 71 165 96.5
t190 0.5t166 -96q67 -66 93.5 -154.5t8.5 -178.5t-76 -162zM668 268v-1.5v-0.5q0 -10 -6.5 -16.5t-16.5 -6.5q-8 0 -14.5 6t-7.5 15v0q-9 56 -51 95.5t-100 43.5q-57 -4 -99 -43.5t-51 -95.5v5q-1 -10 -7.5 -18t-14.5 -8q-10 0 -16.5 9t-6.5 19v2v0q7 53 39.5 93.5
t81.5 63.5q-45 36 -45 93q0 50 35 85t84.5 35t84.5 -35t35 -85q0 -57 -45 -93q49 -22 81.5 -65.5t39.5 -96.5v0zM398 523q0 -31 22 -52.5t52.5 -21.5t52 21.5t21.5 52.5t-21.5 52.5t-52 21.5t-52.5 -21.5t-22 -52.5z" />
    <glyph glyph-name="zhanghuguanli" unicode="&#xe60d;" 
d="M660 642.5q0 -59.5 -42 -101.5t-102 -42t-102 42t-42 101.5t42 101.5t102 42t102 -42t42 -101.5zM516 489q-84 -5 -154.5 -43.5t-112 -106.5t-38.5 -150q2 -47 23.5 -82t52.5 -54.5t74 -31.5t79 -15.5t76 -3.5q38 0 73 3.5t76.5 15.5t72 31.5t51.5 54.5t23 82
q2 82 -38 150t-108.5 106.5t-149.5 43.5zM633 484q-16 7 -35 12q39 22 62.5 61t23.5 85q0 70 -49 119t-118.5 49t-119 -49t-49.5 -119q0 -45 23 -84t61 -61q-110 -27 -179.5 -119t-69.5 -214q0 -24 3 -48v0q0 -10 7.5 -17t17.5 -7t17 7t7 17q0 4 -1 7q-3 21 -3 41
q0 124 81 209t200 85q52 0 100 -18v0q6 -3 12 -3q10 0 17.5 7t7.5 17q-1 17 -16 23zM397 642.5q0 49.5 35 84t84.5 34.5t84 -34.5t34.5 -84t-34.5 -84.5t-84 -35t-84.5 35t-35 84.5zM841 164q0 -24 -3 -48q0 -10 -7.5 -16.5t-16.5 -6.5q-10 0 -17.5 7t-7.5 17q0 3 1 6
q3 21 3 41q0 40 -10 78q-2 4 -2 9q0 10 7.5 17.5t17.5 7.5q9 0 16 -6.5t8 -15.5q11 -44 11 -90zM836 528l-46 -48q-3 -3 -3 -7q0 -1 1 -2l11 -37q1 -6 7 -7l38 -11q5 -1 9 3l46 48q12 -28 7 -59.5t-27 -53.5q-22 -23 -54.5 -29t-61.5 8l-149 -154q-11 -12 -27.5 -12t-28 11
t-12 27.5t11.5 28.5l148 153q-14 29 -9.5 61.5t27.5 56.5q22 22 53 28t59 -5z" />
    <glyph glyph-name="zixunxian" unicode="&#xe611;" 
d="M392 541h-65q-20 0 -34.5 -14.5t-14.5 -34.5v-82q0 -20 14 -34.5t35 -14.5h65q20 0 34.5 14.5t14.5 34.5v82q0 20 -14 34.5t-35 14.5zM409 410q0 -7 -5 -11.5t-12 -4.5h-65q-7 0 -12 4.5t-5 11.5v82q0 6 5 11t12 5h65q7 0 12 -4.5t5 -11.5v-82zM638 230h-344
q-7 0 -11.5 5t-4.5 11.5t4.5 11.5t11.5 5h344q6 0 11 -5t5 -11.5t-5 -11.5t-11 -5zM638 443h-131q-7 0 -12 4.5t-5 11.5t5 12t12 5h131q6 0 11 -5t5 -12t-5 -11.5t-11 -4.5zM867 377v-229q0 -34 -24 -58t-58 -24h-540q-27 0 -46 19.5t-19 46.5v409v0v3q0 6 4.5 11t11 5
t11.5 -5t5 -11q0 -2 -1 -3h1v-395q0 -18 13 -31t31 -13h434q19 0 32 13t13 31v498q0 18 -13 31t-32 13h-434q-18 0 -31 -13t-13 -31v-30v0q-1 -6 -5.5 -10.5t-10.5 -4.5t-11 4.5t-5 10.5v0v41q0 27 19 46.5t46 19.5h458q27 0 46.5 -19.5t19.5 -46.5v-556h16q20 0 34.5 14.5
t14.5 34.5v229q0 7 5 12t11.5 5t11.5 -5t5 -12z" />
    <glyph glyph-name="zixunmian" unicode="&#xe612;" 
d="M310 410v82q0 6 5 11t12 5h65q7 0 12 -5t5 -11v-82q0 -7 -5 -11.5t-12 -4.5h-65q-7 0 -12 4.5t-5 11.5zM867 377v-229q0 -34 -24 -58t-58 -24h-540q-27 0 -46 19.5t-19 46.5v523q0 27 19 46.5t46 19.5h458q27 0 46.5 -19.5t19.5 -46.5v-556h16q20 0 34.5 14.5t14.5 34.5
v229q0 7 5 12t11.5 5t11.5 -5t5 -12zM278 410q0 -20 14 -34.5t35 -14.5h65q20 0 34.5 14.5t14.5 34.5v82q0 20 -14.5 34.5t-34.5 14.5h-65q-21 0 -35 -14.5t-14 -34.5v-82zM654 246q0 7 -5 12t-11 5h-344q-7 0 -11.5 -5t-4.5 -12t4.5 -11.5t11.5 -4.5h344q6 0 11 4.5t5 11.5
zM654 459q0 7 -5 11.5t-11 4.5h-131q-7 0 -12 -4.5t-5 -11.5t5 -11.5t12 -4.5h131q6 0 11 4.5t5 11.5z" />
    <glyph glyph-name="hangqingxian" unicode="&#xe616;" 
d="M102 376q2 -70 24 -132q27 -72 74 -127q73 -85 174 -120q47 -17 96 -23q23 -1 34 -1q1 0 3 -0.5t3 -0.5h6q1 0 2.5 0.5t2.5 0.5q69 1 131 24q75 27 134 79q78 69 115 168q17 47 22 97q2 21 2 34q0 5 1 6v6q0 1 -0.5 2.5t-0.5 2.5q0 22 -3 45v0q0 7 -5 12t-12 5t-11.5 -5
t-4.5 -12v-0.5v-0.5l-1 -1q4 -28 4 -55q-2 -103 -53.5 -189.5t-139 -136t-190.5 -48.5q-107 1 -195.5 57t-136.5 148q-1 3 -4 9l170 165q10 -6 21 -6q9 0 19 5l115 -110q-1 0 -1 -1v-2q0 -17 12 -29t29 -12t29.5 12t12.5 29q0 1 -1 2v1l250 242q6 -1 10 -1q17 0 30 13t13 30
q0 9 -4 17l1 1q-24 44 -57 82q-70 78 -169 114q-45 16 -96 22q-21 1 -34 1q-1 0 -3 0.5t-3 0.5h-6q-1 0 -2.5 -0.5t-2.5 -0.5q-69 -1 -131 -24q-75 -27 -134 -79q-79 -69 -115 -168q-17 -45 -22 -97q-2 -22 -2 -34v-17zM519 762q94 -1 174.5 -45t131.5 -118q-13 -5 -21 -16
t-8 -25q0 -10 5 -20l-240 -233q-10 7 -22.5 7t-22.5 -7l-111 107q1 5 1 9q0 17 -12 29t-29.5 12t-29.5 -12t-12 -29q0 -2 1 -6l-165 -160q-24 64 -23 133q1 103 52.5 189.5t139.5 136t191 48.5z" />
    <glyph glyph-name="hangqingmian" unicode="&#xe617;" 
d="M924 384q0 -112 -55 -206.5t-149.5 -149.5t-206.5 -55q-117 0 -215 60.5t-150 161.5l195 190q10 -5 21 -5q9 0 18 4l115 -110v-3q0 -17 12 -29t29 -12t29 12t12 29v2v1l250 242q5 -1 9 -1q18 0 30.5 12.5t12.5 30.5q0 7 -2 13q45 -88 45 -187zM323 421q0 17 12 29t29 12
t29 -12t12 -29q0 -4 -1 -9l112 -107q10 7 22 7t23 -7l239 233q-5 9 -5 20q0 18 12.5 30.5t30.5 12.5q20 0 34 -17q-54 96 -149.5 153.5t-209.5 57.5q-112 0 -206.5 -55t-149.5 -149.5t-55 -206.5q0 -80 30 -155l191 186v3v3z" />
    <glyph glyph-name="xialaanniu" unicode="&#xe618;" 
d="M931 507q0 -21 -15 -36l-370 -370q-15 -15 -36 -15t-36 15l-370 370q-15 15 -15 36t15 35.5t36 14.5t35 -15l335 -334l335 334q14 15 35 15t36 -14.5t15 -35.5zM931 507z" />
    <glyph glyph-name="xiangrouanniu" unicode="&#xe619;" 
d="M435 805q21 0 35 -15l371 -370q14 -15 14 -36t-14 -36l-371 -370q-14 -15 -35 -15t-36 14.5t-15 35.5t15 36l335 335l-335 334q-15 15 -15 36t15 36t36 15zM435 805z" />
    <glyph glyph-name="xiangzuoanniu" unicode="&#xe61a;" 
d="M589 -37q-21 0 -35 15l-371 370q-14 15 -14 36t14 36l371 370q14 15 35 15t36 -14.5t15 -35.5t-15 -36l-335 -335l335 -334q15 -15 15 -36t-15 -36t-36 -15zM589 -37z" />
    <glyph glyph-name="wodexian" unicode="&#xe61b;" 
d="M828 97q0 -8 -5.5 -13.5t-13 -5.5t-13 5.5t-5.5 13.5q0 27 -5 55q-25 120 -121 182q-7 4 -8.5 11.5t3 14t11.5 8t14 -2.5q25 -17 46 -37l1 -1l0.5 -0.5l0.5 -0.5q62 -61 84 -148l1 -2q1 -3 1 -5t1 -6t2 -6v0q6 -32 6 -62zM719 603q0 -91 -59.5 -154t-148.5 -63h-8
q-105 -3 -187 -84q-85 -86 -85 -205q0 -8 -5 -13.5t-12.5 -5.5t-13 5.5t-5.5 13.5q0 135 95 230q58 58 135 81q-55 27 -88 79.5t-33 115.5q0 91 59 154t148 63t148.5 -63t59.5 -154zM683 603q0 76 -49 128.5t-123 52.5t-122.5 -52.5t-48.5 -128.5q0 -74 46 -125.5t117 -55.5
q3 1 8 1q2 0 3 -1q73 1 121 53.5t48 127.5z" />
    <glyph glyph-name="wodemian" unicode="&#xe61c;" 
d="M735 326q-58 58 -136 82q55 27 89 80t34 116q0 92 -59 156t-148 64h-1q-90 0 -151.5 -64t-61.5 -156q0 -63 34 -116t89 -80q-78 -24 -136 -82q-96 -97 -96 -233q0 -4 1 -8q9 -30 40 -33h557q31 3 40 33q2 4 2 8q-1 136 -97 233z" />
    <glyph glyph-name="yuanqixian" unicode="&#xe61d;" 
d="M205 547v1q0 6 4.5 11t10.5 5h583q6 0 11 -5t5 -11v-1q0 -7 -5 -11.5t-11 -4.5h-583q-6 0 -10.5 4.5t-4.5 11.5zM753 468q-13 0 -22 -9t-9 -22q0 -4 1 -8l-169 -150q-7 5 -16 5q-5 0 -9 -2l-91 91q1 5 1 10q0 13 -9 22.5t-22 9.5t-22.5 -9.5t-9.5 -22.5q0 -3 1 -6
l-92 -85q-7 4 -15 4q-13 0 -22.5 -9.5t-9.5 -22.5t9.5 -22.5t22.5 -9.5t22.5 9.5t9.5 22.5v1l95 88q5 -1 11 -1h7l92 -92q-1 -4 -1 -8q0 -13 9.5 -22.5t22.5 -9.5t22 9t10 22l175 156q4 -2 8 -2q13 0 22.5 9.5t9.5 22.5t-9.5 22t-22.5 9zM780 680h-84v46q0 6 -4.5 11
t-11.5 5h-1q-6 0 -11 -5t-5 -11v-46h-303v46q0 6 -4.5 11t-10.5 5h-1q-7 0 -11.5 -5t-4.5 -11v-46h-85q-42 0 -71.5 -30t-29.5 -72v-391q0 -42 29.5 -72t71.5 -30h90v0q6 0 10.5 4.5t4.5 11.5q0 6 -5 11t-11 5h-2h-87q-28 0 -48.5 20.5t-20.5 49.5v391q0 29 20 49.5t49 20.5
h537q29 0 49.5 -20.5t20.5 -49.5v-391q0 -29 -20.5 -49.5t-49.5 -20.5h-296h-0.5h-1.5q-6 0 -11 -5t-5 -11.5t5 -11t11 -4.5h298q42 0 72 30t30 72v391q0 42 -30 72t-72 30z" />
    <glyph glyph-name="yuanqimian" unicode="&#xe61e;" 
d="M780 680h-84v46q0 6 -4.5 11t-11.5 5h-1q-6 0 -11 -5t-5 -11v-46h-303v46q0 6 -4.5 11t-10.5 5h-1q-7 0 -11.5 -5t-4.5 -11v-46h-85q-42 0 -71.5 -30t-29.5 -72v-391q0 -42 29.5 -72t71.5 -30h526h4h7q42 0 72 30t30 72v391q0 42 -30 72t-72 30zM753 405q-4 0 -8 1
l-175 -155q-1 -13 -10 -22t-22 -9t-22.5 9.5t-9.5 22.5q0 4 1 8l-92 92h-7q-6 0 -11 1l-96 -88v-1q0 -13 -9 -22.5t-22 -9.5t-22.5 9.5t-9.5 22.5t9.5 22.5t22.5 9.5q8 0 15 -4l92 85q-1 3 -1 6q0 13 9.5 22.5t22.5 9.5t22 -9.5t9 -22.5q0 -5 -1 -10l91 -91q4 2 9 2
q9 0 16 -5l169 150q-1 4 -1 8q0 13 9 22.5t22 9.5t22.5 -9.5t9.5 -22.5t-9.5 -22.5t-22.5 -9.5zM819 547q0 -7 -5 -11.5t-11 -4.5h-583q-6 0 -10.5 4.5t-4.5 11.5v1q0 6 4.5 11t10.5 5h583q6 0 11 -5t5 -11v-1z" />
    <glyph glyph-name="xiangshanganniu" unicode="&#xe600;" 
d="M91 307q0 21 15 35l370 371q15 14 36 14t36 -14l370 -371q15 -14 15 -35t-14.5 -36t-35.5 -15t-36 15l-335 335l-334 -335q-15 -15 -36 -15t-36 15t-15 36zM91 307z" />
  </font>
</defs>
</svg>
